<svg xmlns="http://www.w3.org/2000/svg" viewBox="0 0 1600 900" width="1600" height="900">
  <defs><linearGradient id="h" x1="0" y1="0" x2="1" y2="1"><stop offset="0" stop-color="#efe0dc"/><stop offset="0.5" stop-color="#e3cfc9"/><stop offset="1" stop-color="#d8bdb6"/></linearGradient></defs>
  <rect width="1600" height="900" fill="url(#h)"/>
  <g opacity="0.35"><circle cx="1250" cy="230" r="180" fill="#fff" opacity="0.25"/><circle cx="330" cy="680" r="240" fill="#fff" opacity="0.18"/></g>
  <g transform="translate(380,430)"><ellipse cx="0" cy="240" rx="120" ry="18" fill="#000" opacity="0.06"/><rect x="-70" y="-160" width="140" height="150" rx="36" fill="#c99a92"/><rect x="-90" y="30" width="180" height="52" rx="24" fill="#c99a92"/><rect x="-78" y="70" width="14" height="130" rx="6" fill="#3a3a3a"/><rect x="64" y="70" width="14" height="130" rx="6" fill="#3a3a3a"/></g>  <g transform="translate(800,430)"><ellipse cx="0" cy="240" rx="120" ry="18" fill="#000" opacity="0.06"/><rect x="-70" y="-160" width="140" height="150" rx="36" fill="#c99a92"/><rect x="-90" y="30" width="180" height="52" rx="24" fill="#c99a92"/><rect x="-78" y="70" width="14" height="130" rx="6" fill="#3a3a3a"/><rect x="64" y="70" width="14" height="130" rx="6" fill="#3a3a3a"/></g>  <g transform="translate(1220,430)"><ellipse cx="0" cy="240" rx="120" ry="18" fill="#000" opacity="0.06"/><rect x="-70" y="-160" width="140" height="150" rx="36" fill="#c99a92"/><rect x="-90" y="30" width="180" height="52" rx="24" fill="#c99a92"/><rect x="-78" y="70" width="14" height="130" rx="6" fill="#3a3a3a"/><rect x="64" y="70" width="14" height="130" rx="6" fill="#3a3a3a"/></g>
</svg>
